<mxfile host="app.diagrams.net" modified="2023-08-08T16:59:16.894Z" agent="Mozilla/5.0 (Windows NT 10.0; Win64; x64) AppleWebKit/537.36 (KHTML, like Gecko) Chrome/115.0.0.0 Safari/537.36" etag="byExL8iTkGWNXevYmUn3" version="21.6.7" type="device">
  <diagram name="Page-1" id="NfvslftzR1Ngf-4JeQ3-">
    <mxGraphModel dx="1050" dy="542" grid="1" gridSize="10" guides="1" tooltips="1" connect="1" arrows="1" fold="1" page="1" pageScale="1" pageWidth="850" pageHeight="1100" math="0" shadow="0">
      <root>
        <mxCell id="0" />
        <mxCell id="1" parent="0" />
        <mxCell id="xMpkC-30fn30EJLXxt1L-20" value="" style="rounded=0;whiteSpace=wrap;html=1;" vertex="1" parent="1">
          <mxGeometry x="70" y="30" width="600" height="380" as="geometry" />
        </mxCell>
        <mxCell id="xMpkC-30fn30EJLXxt1L-1" value="" style="image;html=1;image=img/lib/atlassian/Bitbucket_Logo.svg;" vertex="1" parent="1">
          <mxGeometry x="130" y="160" width="57" height="50" as="geometry" />
        </mxCell>
        <mxCell id="xMpkC-30fn30EJLXxt1L-2" value="" style="endArrow=classic;html=1;rounded=0;" edge="1" parent="1">
          <mxGeometry width="50" height="50" relative="1" as="geometry">
            <mxPoint x="180" y="180" as="sourcePoint" />
            <mxPoint x="260" y="180" as="targetPoint" />
          </mxGeometry>
        </mxCell>
        <mxCell id="xMpkC-30fn30EJLXxt1L-3" value="" style="outlineConnect=0;dashed=0;verticalLabelPosition=bottom;verticalAlign=top;align=center;html=1;shape=mxgraph.aws3.codebuild;fillColor=#759C3E;gradientColor=none;" vertex="1" parent="1">
          <mxGeometry x="260" y="139" width="70" height="81" as="geometry" />
        </mxCell>
        <mxCell id="xMpkC-30fn30EJLXxt1L-4" value="Bitbucket" style="whiteSpace=wrap;html=1;" vertex="1" parent="1">
          <mxGeometry x="130" y="220" width="60" height="20" as="geometry" />
        </mxCell>
        <mxCell id="xMpkC-30fn30EJLXxt1L-5" value="codebuild" style="whiteSpace=wrap;html=1;" vertex="1" parent="1">
          <mxGeometry x="265" y="230" width="60" height="20" as="geometry" />
        </mxCell>
        <mxCell id="xMpkC-30fn30EJLXxt1L-6" value="" style="outlineConnect=0;dashed=0;verticalLabelPosition=bottom;verticalAlign=top;align=center;html=1;shape=mxgraph.aws3.codepipeline;fillColor=#759C3E;gradientColor=none;" vertex="1" parent="1">
          <mxGeometry x="401.25" y="144.5" width="67.5" height="81" as="geometry" />
        </mxCell>
        <mxCell id="xMpkC-30fn30EJLXxt1L-8" value="" style="endArrow=classic;html=1;rounded=0;" edge="1" parent="1">
          <mxGeometry width="50" height="50" relative="1" as="geometry">
            <mxPoint x="325" y="179" as="sourcePoint" />
            <mxPoint x="405" y="179" as="targetPoint" />
          </mxGeometry>
        </mxCell>
        <mxCell id="xMpkC-30fn30EJLXxt1L-9" value="codepipeline" style="whiteSpace=wrap;html=1;" vertex="1" parent="1">
          <mxGeometry x="400" y="230" width="70" height="15" as="geometry" />
        </mxCell>
        <mxCell id="xMpkC-30fn30EJLXxt1L-10" value="Amazon EKS" style="sketch=0;outlineConnect=0;fontColor=#232F3E;gradientColor=none;strokeColor=#ffffff;fillColor=#232F3E;dashed=0;verticalLabelPosition=middle;verticalAlign=bottom;align=center;html=1;whiteSpace=wrap;fontSize=10;fontStyle=1;spacing=3;shape=mxgraph.aws4.productIcon;prIcon=mxgraph.aws4.eks;" vertex="1" parent="1">
          <mxGeometry x="530" y="150" width="80" height="100" as="geometry" />
        </mxCell>
        <mxCell id="xMpkC-30fn30EJLXxt1L-11" value="" style="endArrow=classic;html=1;rounded=0;" edge="1" parent="1">
          <mxGeometry width="50" height="50" relative="1" as="geometry">
            <mxPoint x="470" y="190" as="sourcePoint" />
            <mxPoint x="530" y="190" as="targetPoint" />
          </mxGeometry>
        </mxCell>
        <mxCell id="xMpkC-30fn30EJLXxt1L-12" value="" style="sketch=0;outlineConnect=0;fontColor=#232F3E;gradientColor=none;fillColor=#3F8624;strokeColor=none;dashed=0;verticalLabelPosition=bottom;verticalAlign=top;align=center;html=1;fontSize=12;fontStyle=0;aspect=fixed;pointerEvents=1;shape=mxgraph.aws4.bucket;" vertex="1" parent="1">
          <mxGeometry x="270" y="300" width="48.08" height="50" as="geometry" />
        </mxCell>
        <mxCell id="xMpkC-30fn30EJLXxt1L-13" value="" style="endArrow=classic;html=1;rounded=0;exitX=0.5;exitY=1;exitDx=0;exitDy=0;exitPerimeter=0;" edge="1" parent="1" source="xMpkC-30fn30EJLXxt1L-3" target="xMpkC-30fn30EJLXxt1L-12">
          <mxGeometry width="50" height="50" relative="1" as="geometry">
            <mxPoint x="400" y="310" as="sourcePoint" />
            <mxPoint x="450" y="260" as="targetPoint" />
          </mxGeometry>
        </mxCell>
        <mxCell id="xMpkC-30fn30EJLXxt1L-14" value="s3 Bucket" style="whiteSpace=wrap;html=1;" vertex="1" parent="1">
          <mxGeometry x="244.04" y="350" width="100" height="20" as="geometry" />
        </mxCell>
        <mxCell id="xMpkC-30fn30EJLXxt1L-15" value="" style="sketch=0;points=[[0,0,0],[0.25,0,0],[0.5,0,0],[0.75,0,0],[1,0,0],[0,1,0],[0.25,1,0],[0.5,1,0],[0.75,1,0],[1,1,0],[0,0.25,0],[0,0.5,0],[0,0.75,0],[1,0.25,0],[1,0.5,0],[1,0.75,0]];outlineConnect=0;fontColor=#232F3E;gradientColor=#F78E04;gradientDirection=north;fillColor=#D05C17;strokeColor=#ffffff;dashed=0;verticalLabelPosition=bottom;verticalAlign=top;align=center;html=1;fontSize=12;fontStyle=0;aspect=fixed;shape=mxgraph.aws4.resourceIcon;resIcon=mxgraph.aws4.ecr;" vertex="1" parent="1">
          <mxGeometry x="330" y="40" width="60" height="60" as="geometry" />
        </mxCell>
        <mxCell id="xMpkC-30fn30EJLXxt1L-16" value="" style="endArrow=classic;html=1;rounded=0;exitX=0.5;exitY=0;exitDx=0;exitDy=0;exitPerimeter=0;entryX=0;entryY=0.5;entryDx=0;entryDy=0;entryPerimeter=0;" edge="1" parent="1" source="xMpkC-30fn30EJLXxt1L-3" target="xMpkC-30fn30EJLXxt1L-15">
          <mxGeometry width="50" height="50" relative="1" as="geometry">
            <mxPoint x="290" y="130" as="sourcePoint" />
            <mxPoint x="330" y="60" as="targetPoint" />
            <Array as="points">
              <mxPoint x="295" y="70" />
            </Array>
          </mxGeometry>
        </mxCell>
        <mxCell id="xMpkC-30fn30EJLXxt1L-17" value="ECR" style="whiteSpace=wrap;html=1;" vertex="1" parent="1">
          <mxGeometry x="330" y="110" width="60" height="20" as="geometry" />
        </mxCell>
        <mxCell id="xMpkC-30fn30EJLXxt1L-18" value="" style="endArrow=classic;html=1;rounded=0;exitX=1;exitY=0.5;exitDx=0;exitDy=0;exitPerimeter=0;entryX=0.39;entryY=0.008;entryDx=0;entryDy=0;entryPerimeter=0;" edge="1" parent="1" source="xMpkC-30fn30EJLXxt1L-15" target="xMpkC-30fn30EJLXxt1L-10">
          <mxGeometry width="50" height="50" relative="1" as="geometry">
            <mxPoint x="418.75" y="80" as="sourcePoint" />
            <mxPoint x="570" y="140" as="targetPoint" />
            <Array as="points">
              <mxPoint x="560" y="70" />
            </Array>
          </mxGeometry>
        </mxCell>
        <mxCell id="xMpkC-30fn30EJLXxt1L-19" value="" style="outlineConnect=0;dashed=0;verticalLabelPosition=bottom;verticalAlign=top;align=center;html=1;shape=mxgraph.aws3.virtual_private_cloud;fillColor=#F58534;gradientColor=none;" vertex="1" parent="1">
          <mxGeometry x="110" y="40" width="60" height="40" as="geometry" />
        </mxCell>
      </root>
    </mxGraphModel>
  </diagram>
</mxfile>
